<svg xmlns="http://www.w3.org/2000/svg" height="490.667" width="546.667"><path fill="#fff" d="M506.667 235.07a39.192 39.192 0 0 0-20.984 6.067c-6.928-19.74-25.74-33.937-47.819-33.937H185.068c-12.328 0-23.641 4.432-32.437 11.781-6.97-18.62-24.943-31.912-45.964-31.912a48.777 48.777 0 0 0-27.735 8.62V98.397c0-21.76-17.703-39.462-39.463-39.462C17.703 58.935 0 76.637 0 98.397V479.2c0 5.89 4.776 10.667 10.667 10.667h57.598c5.891 0 10.667-4.776 10.667-10.667v-46.932h154.667c5.89 0 10.666-4.776 10.666-10.666 0-5.892-4.776-10.667-10.666-10.667H78.932V285.2h55.47v51.281a24.106 24.106 0 0 0 12.577 21.183 24.128 24.128 0 0 0 24.625-.917l.265-.178c8.896-5.738 20.407-5.76 29.319-.057l.88.563c15.927 10.188 36.49 10.152 52.38-.104l.62-.402c8.896-5.738 20.405-5.76 29.323-.057l.874.557c15.932 10.194 36.495 10.152 52.38-.098l.626-.402c8.89-5.738 20.401-5.76 29.317-.057l.876.557a48.46 48.46 0 0 0 26.12 7.62c9.145-.005 18.285-2.573 26.25-7.713l.635-.407c8.895-5.738 20.406-5.76 29.328-.052l.619.391a24.093 24.093 0 0 0 15.781 3.636v50.39H312.901c-5.89 0-10.666 4.776-10.666 10.668 0 5.89 4.776 10.666 10.666 10.666h154.296V479.2c0 5.89 4.776 10.667 10.667 10.667h57.605c5.891 0 10.667-4.776 10.667-10.667V274.533c0-21.76-17.71-39.464-39.47-39.464zM57.598 274.532v194H21.333V98.397c0-9.994 8.136-18.129 18.136-18.129 9.995 0 18.13 8.135 18.13 18.13zm49.069-10.666c-15.292 0-27.735-12.438-27.735-27.73s12.443-27.734 27.735-27.734 27.734 12.442 27.734 27.734c0 15.292-12.442 27.73-27.734 27.73zm360.536-5.47H360.969c-5.89 0-10.666 4.776-10.666 10.667 0 5.89 4.776 10.667 10.666 10.667h106.228v56.865c0 1.364-.785 2.083-1.448 2.443-.656.364-1.686.64-2.842-.099l-.62-.396c-15.927-10.193-36.49-10.15-52.38.099l-.62.406c-8.896 5.739-20.407 5.76-29.323.058l-.876-.563c-15.932-10.188-36.495-10.15-52.38.104l-.625.401c-8.89 5.739-20.4 5.76-29.318.058l-.88-.563c-7.937-5.079-17.025-7.615-26.109-7.615-9.15 0-18.297 2.574-26.265 7.719l-.626.401c-8.896 5.739-20.401 5.76-29.317.058l-.88-.563c-15.928-10.188-36.49-10.147-52.39.11l-.267.171c-1.151.744-2.176.468-2.843.11-.661-.366-1.453-1.079-1.453-2.448v-78.62c0-16.178 13.156-29.334 29.333-29.334h252.801c16.172 0 29.334 13.156 29.334 29.334zm57.6 210.136H488.53v-194c0-9.994 8.136-18.13 18.136-18.13s18.136 8.136 18.136 18.13z"/><path fill="#fff" d="M280.61 414.06a10.748 10.748 0 0 0-7.542-3.125c-2.808 0-5.557 1.14-7.541 3.125a10.737 10.737 0 0 0-3.126 7.542c0 2.8 1.14 5.557 3.126 7.54a10.766 10.766 0 0 0 7.541 3.126c2.801 0 5.557-1.141 7.541-3.125a10.754 10.754 0 0 0 3.126-7.541c0-2.809-1.142-5.558-3.126-7.542zM382.235 58.935h-31.85l39.391-39.391a10.665 10.665 0 0 0-7.541-18.208h-57.599c-5.89 0-10.667 4.77-10.667 10.667 0 5.89 4.776 10.666 10.667 10.666h31.848l-39.39 39.391a10.661 10.661 0 0 0-2.313 11.624 10.662 10.662 0 0 0 9.855 6.584h57.599c5.89 0 10.666-4.776 10.666-10.667 0-5.89-4.776-10.666-10.666-10.666zm-109.167 42.666h-16.917l24.458-24.458a10.664 10.664 0 0 0-7.541-18.208h-42.667c-5.89 0-10.666 4.776-10.666 10.666 0 5.891 4.776 10.667 10.666 10.667h16.916l-24.457 24.459a10.66 10.66 0 0 0-2.313 11.624 10.667 10.667 0 0 0 9.854 6.584h42.667c5.89 0 10.667-4.776 10.667-10.667 0-5.89-4.776-10.667-10.667-10.667zm-89.276 38.402h-8.38l15.921-15.928a10.664 10.664 0 0 0-7.541-18.208h-34.136c-5.89 0-10.667 4.776-10.667 10.666 0 5.891 4.776 10.667 10.667 10.667h8.385l-15.926 15.921a10.665 10.665 0 0 0-2.312 11.626 10.666 10.666 0 0 0 9.853 6.589h34.136c5.89 0 10.667-4.776 10.667-10.667 0-5.896-4.776-10.666-10.667-10.666zm148.391 121.52a10.77 10.77 0 0 0-7.552-3.126 10.748 10.748 0 0 0-7.543 3.126 10.753 10.753 0 0 0-3.124 7.541c0 2.808 1.14 5.557 3.124 7.543a10.763 10.763 0 0 0 7.543 3.124c2.801 0 5.557-1.14 7.552-3.124a10.738 10.738 0 0 0 3.114-7.543c0-2.801-1.13-5.557-3.114-7.541z"/></svg>